<?xml version="1.0" encoding="utf-8"?>
<!-- Generator: Adobe Illustrator 22.0.0, SVG Export Plug-In . SVG Version: 6.00 Build 0)  -->
<svg version="1.1" id="Layer_1" xmlns="http://www.w3.org/2000/svg" xmlns:xlink="http://www.w3.org/1999/xlink" x="0px" y="0px"
	 viewBox="0 0 141.9 69.8" style="enable-background:new 0 0 141.9 69.8;" xml:space="preserve">
<style type="text/css">
	.st0{fill:#FFFFFF;}
	.st1{fill:#0A7BA3;}
</style>
<g>
	<g>
		<g>
			<path class="st0" d="M40.6,27.7c-1.8,0-3.3-0.6-4.4-1.7c-1.3,1.1-3,1.7-4.9,1.7c-1.9,0-3.4-0.6-4.4-1.7c-1.1-1.1-1.6-2.6-1.6-4.4
				c0-0.2,0-0.5,0.1-1l1-7.7c-2.1-1.7-3.1-3.7-3.1-5.9c0-1.7,0.6-3.1,1.8-4.1c1.1-1,2.5-1.4,4.1-1.4c3.5,0,5.5,2,5.5,5.4
				c0,0.1,0,0.2,0,0.4v0.1c0,0.2,0,0.4-0.1,0.6c0,0.2-0.1,0.4-0.1,0.7l-0.4,2.8c-0.1,0.7-0.2,1.4-0.3,2.2l-0.4,2.9
				c-0.2,1.2-0.3,2.1-0.4,2.9c-0.1,1-0.2,1.4-0.2,1.5c0,0.3,0,0.4,0.1,0.5l0,0c0.8,0,1.1-2,1.2-2.6l2-16.1l0.8-0.3
				c0.9-0.4,1.9-0.6,3-0.6c2.5,0,3.4,1.6,3.4,3V5v0.4c-0.8,6-1.3,9.6-1.5,11c-0.4,2.2-0.6,3.8-0.6,4.9c0,0.1,0,0.2,0,0.3
				c0.2,0,0.5-0.3,0.9-1c0.6-1.1,1-2.5,1.4-4.1c0.7-3.7,1-6.9,1-9.5c0-1.2-0.1-2.2-0.3-3l-0.6-1l0.9-0.6c1-0.6,2.3-0.9,3.7-0.9
				c1.5,0,3.2,0.9,3.2,3.5c0,2.2-0.3,5.3-1,9.7c-0.6,3.7-1.3,6.4-2.3,8.3c-0.5,0.8-1,1.6-1.6,2.3C45,26.8,43.1,27.7,40.6,27.7z"/>
			<path class="st1" d="M48.2,3c1.1,0,1.7,0.7,1.7,2c0,2.1-0.3,5.2-1,9.4c-0.5,3.5-1.2,6.1-2.2,7.8c-0.4,0.7-0.9,1.4-1.4,2
				c-1.1,1.3-2.7,2-4.7,2s-3.5-0.9-4.3-2.6c-1.1,1.7-2.8,2.6-5,2.6c-1.4,0-2.6-0.4-3.4-1.3c-0.8-0.8-1.2-1.9-1.2-3.3
				c0-0.2,0-0.5,0.1-0.8l1.1-8.5C25.7,10.7,24.6,9,24.6,7c0-1.2,0.4-2.2,1.3-2.9C26.7,3.4,27.8,3,29,3c2.6,0,4,1.3,4,3.9
				c0,0,0,0.1,0,0.2s0,0.2,0,0.3c0,0.1,0,0.3-0.1,0.5c0,0.2-0.1,0.4-0.1,0.8c-0.1,0.3-0.1,0.7-0.2,1.1c-0.1,0.4-0.1,1-0.2,1.6
				c-0.1,0.6-0.2,1.4-0.3,2.2c-0.1,0.8-0.2,1.8-0.4,2.9c-0.2,1.1-0.3,2.1-0.4,2.9s-0.2,1.4-0.2,1.7c0,1.3,0.5,2,1.6,2
				c1.4,0,2.3-1.3,2.7-4L37.1,4c0.7-0.3,1.5-0.5,2.4-0.5c1.3,0,1.9,0.5,1.9,1.5v0.4c-0.8,5.9-1.3,9.5-1.5,10.9
				c-0.4,2.3-0.6,4-0.6,5.1c0,1.2,0.5,1.8,1.5,1.8c0.8,0,1.6-0.6,2.3-1.8c0.7-1.2,1.2-2.7,1.5-4.5c0.7-3.8,1.1-7,1.1-9.8
				c0-1.3-0.1-2.4-0.3-3.3C46.1,3.2,47.1,3,48.2,3 M28.2,9.6l0.2-1.2c0.1-0.7,0.1-1.3,0.1-2s-0.2-1-0.7-1c-0.4,0-0.7,0.1-0.8,0.4
				c-0.2,0.3-0.3,0.6-0.3,1C26.7,7.7,27.2,8.7,28.2,9.6 M48.2,0c-1.7,0-3.2,0.4-4.4,1.2l-0.9,0.5C42.1,1,41,0.6,39.5,0.6
				c-1.4,0-2.6,0.2-3.6,0.7L34.4,2v0.2C33.1,0.8,31.3,0,29,0c-1.9,0-3.7,0.6-5,1.8c-1.6,1.3-2.4,3.1-2.4,5.2c0,1.7,0.6,4.1,3,6.5
				l-0.9,6.9l0,0l0,0c-0.1,0.5-0.1,0.8-0.1,1.1c0,2.1,0.7,4,2,5.4c0.9,1,2.7,2.2,5.5,2.2c1.9,0,3.5-0.4,4.9-1.3
				c1.2,0.8,2.8,1.3,4.5,1.3c3.6,0,5.8-1.6,7-3c0.7-0.8,1.2-1.6,1.7-2.4l0,0l0,0c1.1-2,1.9-4.9,2.5-8.8c0.7-4.4,1-7.6,1-9.9
				C52.9,1.5,50.5,0,48.2,0L48.2,0z"/>
		</g>
		<g>
			<path class="st0" d="M57,27.7c-2.4,0-4.4-0.8-5.9-2.3c-1.5-1.6-2.3-3.7-2.3-6.1c0-2.5,0.9-4.7,2.8-6.5c1.9-1.9,4.1-2.8,6.7-2.8
				c1.9,0,3.4,0.4,4.6,1.3c1.4,0.9,2.1,2.3,2.1,3.9c0,0.4,0,0.8-0.1,1.1l0.5-1l1.5,1.4c0.5,0.5,1,1.2,1.5,1.9l0.4,0.7l-0.4,0.6
				c-0.8,1.7-2.1,3.4-3.9,5c-1,0.8-2.1,1.5-3.4,2C59.8,27.4,58.4,27.7,57,27.7z M58.1,15.3c-0.2,0-0.6,0-1.2,0.9
				c-0.3,0.4-0.5,0.9-0.7,1.5c0.7-0.2,1.3-0.5,1.6-0.9c0.3-0.3,0.6-0.8,0.6-1.2c0-0.1,0-0.2,0-0.2C58.3,15.3,58.2,15.3,58.1,15.3z"
				/>
			<path class="st1" d="M58.3,11.5c1.5,0,2.8,0.3,3.8,1s1.5,1.6,1.5,2.7c0,1.5-0.6,2.8-1.9,3.8c-1.2,1-2.9,1.6-5.1,2l-0.4-1.8
				c1.2-0.3,2.2-0.8,2.8-1.5s0.9-1.5,0.9-2.2s-0.2-1.2-0.6-1.4c-0.4-0.3-0.8-0.4-1.2-0.4c-0.9,0-1.8,0.5-2.5,1.6s-1.1,2.3-1.1,3.8
				s0.3,2.5,1,3.3c0.7,0.7,1.6,1.1,2.6,1.1c1.5,0,3-0.5,4.3-1.6c1.4-1,2.5-2.4,3.4-4.1c0.4,0.4,0.8,0.9,1.2,1.6
				c-0.7,1.5-1.8,3-3.5,4.4c-0.8,0.7-1.8,1.3-3,1.7c-1.2,0.4-2.3,0.7-3.6,0.7c-2,0-3.6-0.6-4.8-1.8c-1.2-1.3-1.9-3-1.9-5.1
				s0.8-3.9,2.3-5.4C54.2,12.2,56.1,11.5,58.3,11.5 M58.3,8.5c-3,0-5.6,1.1-7.7,3.2c-2.1,2.1-3.2,4.7-3.2,7.6c0,2.8,0.9,5.3,2.7,7.2
				c1.7,1.8,4.1,2.8,7,2.8c1.6,0,3.2-0.3,4.6-0.9c1.5-0.6,2.8-1.3,3.8-2.2c2.1-1.8,3.5-3.6,4.4-5.5l0.6-1.4L69.7,18
				c-0.5-0.9-1.1-1.6-1.7-2.2l-1.6-1.6c-0.3-1.7-1.2-3.2-2.6-4.2C62.3,9,60.4,8.5,58.3,8.5L58.3,8.5z"/>
		</g>
		<g>
			<path class="st0" d="M77,27.7c-2,0-3.8-0.7-5.2-2.1c-1.4-1.4-2.1-3.2-2.1-5.4c0-3,0.9-5.5,2.8-7.4c1.7-1.9,4.1-2.8,6.8-2.8h0.2
				c0.9,0,1.8,0.1,2.7,0.4c0.6-0.3,1.3-0.4,2.1-0.4c1.1,0,1.8,0.2,2.4,0.5l0.9,0.5l-0.2,1c-0.2,1.5-0.4,3-0.6,4.4s-0.3,2.4-0.4,3.1
				c-0.1,0.8-0.2,1.4-0.2,1.8c0.3-0.4,0.7-1.1,1-2.5l0.7-2.3l1.8,1.6c0.8,0.7,1.3,1.5,1.6,2.4l0.2,0.5l-0.1,0.4
				c-0.7,2.2-1.6,3.8-2.9,4.8c-1.3,1-2.5,1.5-3.9,1.5c-1.8,0-3-0.5-3.8-1.2C79.7,27.2,78.4,27.7,77,27.7z M79.8,15.3
				c-0.8,0-1.4,0.3-1.9,0.9c-0.6,0.7-0.9,1.9-1,3.5c0,0.2,0,0.3,0,0.4c0,0.6,0.1,1.1,0.4,1.4c0.2,0.2,0.4,0.3,0.7,0.3
				c0.2,0,0.8,0,1.4-1.5L79.8,15.3L79.8,15.3z"/>
			<path class="st1" d="M84.3,11.5c0.8,0,1.3,0.1,1.7,0.3c-0.2,1.5-0.4,3-0.6,4.4s-0.3,2.5-0.4,3.1c-0.2,1.4-0.3,2.4-0.3,3
				c0,0.8,0.3,1.2,1,1.2c0.5,0,1-0.3,1.6-1s1.1-1.7,1.5-3.2c0.6,0.5,1,1.1,1.2,1.7c-0.6,1.9-1.4,3.3-2.4,4c-1,0.8-2,1.2-2.9,1.2
				c-1.9,0-3.1-0.6-3.7-1.9c-1,1.3-2.4,2-4,2s-3-0.6-4.1-1.7s-1.7-2.6-1.7-4.4c0-2.6,0.8-4.7,2.3-6.3s3.5-2.4,5.9-2.4
				c0.1,0,0.1,0,0.2,0c1,0,1.9,0.2,2.8,0.5C82.8,11.6,83.5,11.5,84.3,11.5 M77.9,23.4c1.3,0,2.2-0.9,2.9-2.7l0.7-6.5
				c-0.6-0.2-1.1-0.4-1.7-0.4c-1.3,0-2.3,0.5-3.1,1.5c-0.8,1-1.2,2.4-1.3,4.4c0,0.2,0,0.4,0,0.5c0,1,0.2,1.8,0.7,2.4
				C76.5,23.1,77.2,23.4,77.9,23.4 M84.3,8.5c-0.8,0-1.5,0.1-2.1,0.3c-0.8-0.2-1.7-0.3-2.6-0.3h-0.2c-3.2,0-5.9,1.1-8,3.2
				s-3.2,5-3.2,8.4c0,2.6,0.9,4.8,2.6,6.5s3.8,2.5,6.2,2.5c1.4,0,2.7-0.3,3.8-0.9c1,0.5,2.2,0.9,3.9,0.9c1.6,0,3.3-0.6,4.8-1.8
				c1.5-1.2,2.6-3,3.4-5.5l0.3-0.9L92.8,20c-0.4-1.1-1.1-2.1-2-3l-2.2-2c0.1-1,0.3-1.9,0.4-2.9l0.2-2l-1.7-1
				C86.6,8.7,85.6,8.5,84.3,8.5L84.3,8.5z"/>
		</g>
		<g>
			<path class="st0" d="M92.2,27.7c-2.2,0-3.5-1-4.1-1.8c-0.8-1.1-1.2-2.4-1.2-4c0-0.5,0-0.8,0-1l1.2-10.2l0.9-0.3
				c0.9-0.3,1.8-0.4,2.7-0.4c1,0,1.8,0.3,2.3,0.6c0.8-0.4,1.7-0.6,2.6-0.6c1.3,0,2.3,0.3,3.1,1c0.9,0.7,1.3,1.7,1.3,2.8
				s-0.5,2.1-1.3,2.8c-0.7,0.6-1.5,0.9-2.5,1c0.7,1.2,1.1,2.5,1.1,3.9c0,2-0.6,3.5-1.8,4.6C95.3,27.1,93.9,27.7,92.2,27.7z"/>
			<path class="st1" d="M96.6,11.5c0.9,0,1.6,0.2,2.1,0.6c0.5,0.4,0.8,1,0.8,1.6c0,0.7-0.3,1.2-0.8,1.7c-0.5,0.4-1.2,0.6-2,0.6h-0.1
				c0-0.2,0.1-0.4,0.1-0.6c0-0.9-0.4-1.3-1.2-1.3c-0.8,0-1.5,0.5-1.9,1.6c2.2,1.7,3.3,3.6,3.3,5.8c0,1.5-0.4,2.7-1.3,3.5
				s-2,1.2-3.3,1.2S90,25.8,89.4,25c-0.6-0.8-0.9-1.8-0.9-3.1c0-0.4,0-0.7,0-0.8l1.1-9.2c0.7-0.2,1.5-0.3,2.2-0.3
				c1.2,0,1.8,0.5,1.8,1.4v0.1C94.4,11.9,95.4,11.5,96.6,11.5 M93.5,23.4c0.9,0,1.3-0.7,1.3-2.1c0-1.2-0.6-2.3-1.8-3.5
				c-0.4,2.9-0.5,4.4-0.5,4.4C92.4,23,92.8,23.4,93.5,23.4 M96.6,8.5c-0.9,0-1.8,0.2-2.6,0.5c-0.7-0.3-1.4-0.5-2.4-0.5
				S89.5,8.7,88.5,9l-1.9,0.6l-0.2,2l-1.1,9.2c0,0.3,0,0.7,0,1.2c0,1.9,0.5,3.5,1.5,4.9c0.8,1.1,2.4,2.4,5.3,2.4
				c2.1,0,3.9-0.7,5.3-2c1-1,2.3-2.7,2.3-5.7c0-1-0.2-2-0.5-2.9c0.5-0.2,1-0.5,1.4-0.8c1.2-1,1.8-2.4,1.8-4s-0.7-3-1.8-4
				C99.6,8.9,98.2,8.5,96.6,8.5L96.6,8.5z"/>
		</g>
		<g>
			<path class="st0" d="M106.6,27.7c-2.4,0-4.4-0.8-5.9-2.3c-1.5-1.6-2.3-3.7-2.3-6.1c0-2.5,0.9-4.7,2.8-6.5
				c1.8-1.8,4.1-2.8,6.7-2.8c1.9,0,3.4,0.4,4.6,1.3c1.4,0.9,2.1,2.3,2.1,3.9c0,0.4,0,0.8-0.1,1.1l0.5-1l1.5,1.4
				c0.5,0.5,1,1.2,1.5,1.9l0.4,0.7l-0.3,0.7c-0.8,1.7-2.1,3.4-3.9,5c-1,0.8-2.1,1.5-3.4,2C109.4,27.4,108,27.7,106.6,27.7z
				 M107.7,15.3c-0.2,0-0.6,0-1.2,0.9c-0.3,0.4-0.5,0.9-0.7,1.5c0.7-0.2,1.3-0.5,1.6-0.9c0.3-0.3,0.6-0.8,0.6-1.2c0-0.1,0-0.2,0-0.2
				C107.9,15.3,107.8,15.3,107.7,15.3z"/>
			<path class="st1" d="M107.9,11.5c1.5,0,2.8,0.3,3.8,1s1.5,1.6,1.5,2.7c0,1.5-0.6,2.8-1.9,3.8s-2.9,1.6-5.1,2l-0.4-1.8
				c1.2-0.3,2.2-0.8,2.8-1.5c0.6-0.7,0.9-1.5,0.9-2.2s-0.2-1.2-0.6-1.4c-0.4-0.3-0.8-0.4-1.2-0.4c-0.9,0-1.8,0.5-2.5,1.6
				s-1.1,2.3-1.1,3.8s0.3,2.5,1,3.3c0.7,0.7,1.6,1.1,2.6,1.1c1.5,0,3-0.5,4.3-1.6c1.4-1,2.5-2.4,3.4-4.1c0.4,0.4,0.8,0.9,1.2,1.6
				c-0.7,1.5-1.8,3-3.5,4.4c-0.8,0.7-1.8,1.3-3,1.7c-1.2,0.4-2.3,0.7-3.6,0.7c-2,0-3.6-0.6-4.8-1.8c-1.2-1.3-1.9-3-1.9-5.1
				s0.8-3.9,2.3-5.4C103.9,12.2,105.7,11.5,107.9,11.5 M107.9,8.5c-3,0-5.6,1.1-7.7,3.2S97,16.4,97,19.3c0,2.8,0.9,5.3,2.7,7.2
				c1.7,1.8,4.1,2.8,7,2.8c1.6,0,3.2-0.3,4.6-0.9c1.5-0.6,2.8-1.3,3.8-2.2c2.1-1.8,3.5-3.6,4.4-5.5l0.6-1.4l-0.8-1.3
				c-0.5-0.9-1.1-1.6-1.7-2.2l-1.5-1.5c-0.3-1.8-1.2-3.3-2.7-4.3S110.1,8.5,107.9,8.5L107.9,8.5z"/>
		</g>
	</g>
	<g>
		<g>
			<path class="st0" d="M29.4,67.2c-3.1,0-5.4-1-7-3c-1.5-1.9-2.2-3.9-2.2-6v-0.1l1.5-13.9c0-0.8-0.2-1.4-0.6-1.8
				c-0.1-0.1-0.4-0.6-1.7-0.6c-0.9,0-1.6,0.3-2.2,1c-0.7,0.8-1.3,2-1.6,3.4c-0.3,2.4-0.7,5.9-1.3,10.4c-0.6,4.6-1,7.6-1.1,9L13.1,67
				H1.7l0.2-1.7C5,39.2,6.8,23.7,7.4,17.8l0.1-0.9l0.9-0.3c1-0.4,2.4-0.6,4.1-0.6c5.6,0,6.4,2.8,6.4,4.4v0.5V21
				c-0.6,5.1-1.1,9.8-1.8,14c1.7-0.9,3.6-1.3,5.6-1.3c3.2,0,5.8,0.8,7.7,2.5c2,1.7,3,3.9,3,6.6c0,0.7-0.1,1.8-0.4,3.5
				c-1.2,7.7-1.4,10.2-1.4,10.9c0,1.2,0.3,1.4,0.3,1.4s0.1,0,0.2,0c0.6,0,1.5-0.6,2.4-1.6c1.1-1.3,2-3.3,2.7-6.1l0.7-2.7l1.9,2
				c1.6,1.7,2.5,3,2.9,4.1l0.1,0.5l-0.1,0.5C40.1,63.2,35.7,67.2,29.4,67.2z"/>
			<path class="st1" d="M12.5,17.5c3.3,0,4.9,1,4.9,2.9v0.4c-0.7,6.6-1.5,12.4-2.3,17.4c2.2-2,4.7-3,7.6-3c2.8,0,5,0.7,6.7,2.1
				c1.6,1.4,2.5,3.2,2.5,5.4c0,0.6-0.1,1.7-0.4,3.3c-1,6.3-1.5,10-1.5,11.1c0,2,0.7,3,2,3c1.1,0,2.3-0.7,3.5-2.2s2.2-3.7,3-6.7
				c1.4,1.5,2.3,2.7,2.6,3.6c-2.2,7.3-6.1,11-11.6,11c-2.6,0-4.5-0.8-5.8-2.4c-1.3-1.6-1.9-3.3-1.9-5l1.5-13.9
				c0-1.1-0.3-2.1-0.9-2.8c-0.6-0.8-1.5-1.1-2.8-1.1s-2.4,0.5-3.3,1.5s-1.6,2.4-2,4.1c-0.3,2.4-0.7,5.9-1.3,10.5s-1,7.6-1.1,9H3.4
				c3-26,4.9-41.8,5.5-47.7C9.8,17.7,11,17.5,12.5,17.5 M12.5,14.5c-1.9,0-3.4,0.2-4.7,0.7l-1.7,0.7l-0.2,1.8
				c-0.6,5.8-2.4,21.4-5.5,47.4L0,68.4h3.4h8.4h2.6l0.3-2.6c0.2-1.4,0.5-4.4,1.1-9c0.6-4.5,1-7.9,1.3-10.3c0.3-1.1,0.7-2,1.3-2.6
				c0.4-0.4,0.7-0.5,1.1-0.5c0.3,0,0.4,0,0.5,0.1s0.2,0.3,0.2,0.8L18.8,58v0.2v0.2c0,2.4,0.9,4.8,2.5,6.9c1.3,1.6,3.7,3.5,8.2,3.5
				c4.8,0,11.2-2.3,14.5-13.1l0.3-0.9L44,53.9c-0.6-1.4-1.6-2.9-3.4-4.8l-3.8-4l-1.3,5.3c-0.8,3.2-1.7,4.7-2.4,5.5L33,56
				c0.1-1.3,0.5-4,1.3-9.6c0.4-2.3,0.4-3.3,0.4-3.7c0-3-1.2-5.7-3.5-7.7c-2.2-1.9-5.1-2.9-8.7-2.9c-1.3,0-2.5,0.2-3.7,0.5
				c0.5-3.5,1-7.4,1.4-11.5v-0.2v-0.2v-0.4C20.4,19,19.8,14.5,12.5,14.5L12.5,14.5z"/>
		</g>
		<g>
			<path class="st0" d="M49.3,67.4c-4.6,0-8.3-1.5-11.1-4.3c-2.9-3.1-4.3-7-4.3-11.7s1.8-8.9,5.3-12.4S47,33.7,52,33.7
				c3.5,0,6.5,0.8,8.7,2.4c2.4,1.7,3.7,4,3.7,6.9c0,3.7-1.5,6.8-4.5,9.1c-2.8,2.2-6.6,3.7-11.3,4.5l-1.2,0.2l0.1,0.1
				c1.2,1.2,2.6,1.8,4.3,1.8c2.8,0,5.6-1,8.2-3c2.7-2,4.9-4.8,6.6-8.1l0.9-1.8l1.5,1.4c1,1,2,2.2,2.8,3.6l0.4,0.7l-0.3,0.7
				c-1.5,3.3-4.1,6.6-7.8,9.8c-1.9,1.6-4.2,2.9-6.7,3.9C54.7,66.9,52,67.4,49.3,67.4z M51.6,41.4c-1.5,0-2.8,0.9-4,2.7
				c-1.3,1.9-2,4.3-2,7c0,2.6,0.6,4.5,1.7,5.7l-1.6-6.6l1.5-0.3c2.3-0.5,3.9-1.4,5-2.6c1-1.3,1.6-2.5,1.6-3.6c0-0.5-0.1-1.4-0.5-1.7
				C52.8,41.6,52.3,41.4,51.6,41.4z"/>
			<path class="st1" d="M52,35.2c3.2,0,5.9,0.7,7.9,2.1c2,1.4,3,3.3,3.1,5.7c0,3.2-1.3,5.9-3.9,7.9c-2.6,2-6.1,3.4-10.6,4.2
				l-0.9-3.7c2.6-0.5,4.5-1.6,5.8-3.2c1.3-1.6,1.9-3.1,1.9-4.5c0-1.5-0.4-2.4-1.2-3c-0.8-0.5-1.6-0.8-2.6-0.8c-2,0-3.7,1.1-5.2,3.3
				s-2.2,4.8-2.2,7.9s0.7,5.3,2.2,6.8s3.2,2.2,5.4,2.2c3.2,0,6.2-1.1,9.1-3.3s5.3-5,7.1-8.6c0.9,0.9,1.8,2,2.5,3.3
				c-1.4,3.2-3.8,6.2-7.4,9.3c-1.8,1.5-3.9,2.7-6.3,3.6c-2.4,0.9-4.9,1.4-7.5,1.4c-4.2,0-7.5-1.3-10-3.8c-2.6-2.8-3.9-6.3-3.9-10.7
				s1.6-8.1,4.9-11.4C43.6,36.8,47.5,35.2,52,35.2 M52,32.2c-5.3,0-10,1.9-13.8,5.7c-3.8,3.8-5.8,8.3-5.8,13.5
				c0,5.1,1.6,9.4,4.7,12.7c3,3.2,7.1,4.8,12.2,4.8c2.9,0,5.8-0.5,8.5-1.6c2.7-1,5.1-2.4,7.1-4.1c3.9-3.3,6.6-6.8,8.2-10.4l0.6-1.4
				l-0.8-1.3c-0.9-1.5-1.9-2.9-3-3.9L67,43.4l-1.5,2.9c0.3-1.1,0.4-2.2,0.4-3.3l0,0l0,0c-0.1-3.4-1.6-6.2-4.4-8.1
				C59.1,33,55.9,32.2,52,32.2L52,32.2z M47.5,48.3c0.3-1.2,0.8-2.4,1.4-3.4c1.3-2,2.4-2,2.7-2c0.2,0,0.5,0,0.7,0.2
				c0,0.1,0,0.3,0,0.6c0,0.9-0.7,1.9-1.2,2.6C50.4,47.2,49.1,47.9,47.5,48.3L47.5,48.3z M53,57.1c2.2-0.7,4.2-1.5,6-2.5
				C57,56.1,55,56.9,53,57.1L53,57.1z"/>
		</g>
		<g>
			<path class="st0" d="M74.5,67.4c-3.2,0-5.6-1.1-7.2-3.2c-1.5-2-2.2-4.4-2.2-7.4c0-0.9,0-1.5,0.1-1.9l2.3-20.2l0.9-0.3
				c1.7-0.5,3.4-0.8,5-0.8c2.5,0,3.8,0.8,4.6,1.8c1.6-1.2,3.6-1.8,5.7-1.8c2.2,0,4,0.5,5.4,1.6s2.1,2.7,2.1,4.6
				c0,1.9-0.7,3.5-2.1,4.6c-1.3,1.1-3.1,1.7-5.2,1.7h-2l0.3-1.8c0.1-0.4,0.1-0.7,0.1-1.1c0-1.2-0.4-1.3-1.1-1.3
				c-0.3,0-1.2,0-2.2,1.4c4.2,3.7,6.4,7.8,6.4,12.4c0,3.7-1.1,6.5-3.2,8.5C80.3,66.4,77.6,67.4,74.5,67.4z M76.5,57.6
				c0,1.1,0.3,1.1,0.6,1.1c0.3,0,1.3,0,1.3-3c0-1.2-0.4-2.5-1.2-3.7C76.9,54.6,76.6,57.1,76.5,57.6z"/>
			<path class="st1" d="M83.8,35.2c1.9,0,3.4,0.4,4.4,1.3c1.1,0.9,1.6,2,1.6,3.4s-0.5,2.6-1.6,3.5s-2.5,1.4-4.2,1.4
				c-0.1,0-0.2,0-0.3,0c0.1-0.5,0.1-0.9,0.1-1.3c0-1.9-0.9-2.8-2.6-2.8s-3.1,1.1-4.1,3.3c4.5,3.6,6.8,7.6,6.8,12
				c0,3.2-0.9,5.7-2.7,7.4c-1.8,1.7-4.1,2.5-6.8,2.5c-2.7,0-4.7-0.9-6-2.6c-1.3-1.7-1.9-3.9-1.9-6.5c0-0.8,0-1.4,0.1-1.8l2.2-19.2
				c1.5-0.5,3-0.7,4.6-0.7c2.6,0,3.8,0.9,3.8,2.8V38C79.1,36.1,81.2,35.2,83.8,35.2 M77.2,60.1c1.8,0,2.8-1.5,2.8-4.5
				c0-2.4-1.3-4.9-3.8-7.3c-0.8,6.1-1.1,9.1-1.1,9.1C75,59.2,75.8,60.1,77.2,60.1 M83.8,32.2c-2,0-3.9,0.5-5.5,1.4
				c-1.1-0.8-2.6-1.4-4.8-1.4c-1.8,0-3.7,0.3-5.5,0.8l-1.9,0.6l-0.2,2l-2.2,19.2c-0.1,0.5-0.1,1.2-0.1,2.1c0,3.3,0.8,6,2.5,8.2
				c1.3,1.7,3.8,3.8,8.4,3.8c3.5,0,6.5-1.1,8.9-3.3c2.4-2.3,3.7-5.5,3.7-9.6c0-2.9-0.8-5.7-2.3-8.2c2.1-0.1,3.9-0.8,5.4-2
				c1.7-1.5,2.7-3.5,2.7-5.8s-0.9-4.3-2.7-5.8C88.5,32.8,86.4,32.2,83.8,32.2L83.8,32.2z"/>
		</g>
		<g>
			<path class="st0" d="M104.7,67.4c-4.6,0-8.3-1.5-11.1-4.3c-2.9-3.1-4.3-7-4.3-11.7s1.8-8.9,5.3-12.4s7.8-5.3,12.8-5.3
				c3.5,0,6.5,0.8,8.7,2.4c2.4,1.7,3.7,4,3.7,6.9c0,3.7-1.5,6.8-4.5,9.1c-2.8,2.2-6.6,3.7-11.3,4.5l-1.4,0.2l0.1,0.1
				c1.2,1.2,2.6,1.8,4.3,1.8c2.8,0,5.6-1,8.2-3c2.7-2,4.9-4.8,6.6-8.1l0.9-1.8l1.5,1.4c1,1,2,2.2,2.8,3.6l0.4,0.7l-0.3,0.7
				c-1.5,3.3-4.1,6.6-7.8,9.8c-1.9,1.6-4.2,2.9-6.7,3.9C110.1,66.9,107.4,67.4,104.7,67.4z M107,41.4c-1.5,0-2.8,0.9-4,2.7
				c-1.3,1.9-2,4.3-2,7c0,2.6,0.6,4.5,1.7,5.7l-1.6-6.6l1.5-0.3c2.3-0.5,3.9-1.4,5-2.6c1-1.3,1.6-2.5,1.6-3.6c0-0.5-0.1-1.4-0.5-1.7
				C108.2,41.6,107.6,41.4,107,41.4z"/>
			<path class="st1" d="M107.4,35.2c3.2,0,5.9,0.7,7.9,2.1c2,1.4,3,3.3,3.1,5.7c0,3.2-1.3,5.9-3.9,7.9s-6.1,3.4-10.6,4.2l-0.9-3.7
				c2.6-0.5,4.5-1.6,5.8-3.2c1.3-1.6,1.9-3.1,1.9-4.5c0-1.5-0.4-2.4-1.2-3c-0.8-0.5-1.6-0.8-2.6-0.8c-2,0-3.7,1.1-5.2,3.3
				s-2.2,4.8-2.2,7.9s0.7,5.3,2.2,6.8s3.2,2.2,5.4,2.2c3.2,0,6.2-1.1,9.1-3.3s5.3-5,7.1-8.6c0.9,0.9,1.8,2,2.5,3.3
				c-1.4,3.2-3.8,6.2-7.4,9.3c-1.8,1.5-3.9,2.7-6.3,3.6c-2.4,0.9-4.9,1.4-7.5,1.4c-4.2,0-7.5-1.3-10-3.8c-2.6-2.8-3.9-6.3-3.9-10.7
				s1.7-8.1,5-11.3C98.9,36.8,102.8,35.2,107.4,35.2 M107.4,32.2c-5.3,0-10,1.9-13.8,5.7c-3.8,3.8-5.8,8.3-5.8,13.5
				c0,5.1,1.6,9.4,4.7,12.7c3,3.2,7.1,4.8,12.1,4.8c2.9,0,5.8-0.5,8.5-1.6c2.7-1,5.1-2.4,7.1-4.1c3.9-3.3,6.6-6.8,8.2-10.4l0.6-1.4
				l-0.8-1.3c-0.9-1.5-1.9-2.9-3-3.9l-2.9-2.8l-1.5,2.9c0.3-1.1,0.4-2.2,0.4-3.3l0,0l0,0c-0.1-3.4-1.6-6.2-4.4-8.1
				C114.5,33,111.2,32.2,107.4,32.2L107.4,32.2z M102.9,48.3c0.3-1.2,0.8-2.4,1.4-3.4c1.3-2,2.4-2,2.7-2c0.2,0,0.5,0,0.7,0.2
				c0,0.1,0,0.3,0,0.6c0,0.9-0.7,1.9-1.2,2.6C105.7,47.2,104.5,47.9,102.9,48.3L102.9,48.3z M108.3,57.1c2.2-0.7,4.2-1.5,6-2.5
				C112.3,56.1,110.4,56.9,108.3,57.1L108.3,57.1z"/>
		</g>
		<g>
			<path class="st0" d="M126.1,68.2c-1.8,0-3.4-0.6-4.7-1.9c-1.3-1.3-1.9-2.8-1.9-4.7c0-1.8,0.6-3.4,1.9-4.7s2.9-2,4.7-2
				c1.8,0,3.4,0.7,4.7,2c1.3,1.3,2,2.9,2,4.7s-0.7,3.4-2,4.7C129.5,67.5,127.9,68.2,126.1,68.2z M122.7,50.5l4.3-38.4l0.7-0.4
				c1.1-0.5,2.7-0.8,5.1-0.8c5.1,0,7.7,1.5,7.7,4.4c0,0.3,0,0.5-0.1,0.9l-8.1,34.3H122.7z"/>
			<path class="st1" d="M132.8,12.4c4.1,0,6.2,1,6.2,2.9c0,0.2,0,0.4-0.1,0.6l-7.8,33h-6.7l4-35.9C129.2,12.7,130.7,12.4,132.8,12.4
				 M126.1,56.4c1.4,0,2.6,0.5,3.7,1.5c1,1,1.5,2.2,1.5,3.7c0,1.4-0.5,2.6-1.5,3.6s-2.2,1.5-3.7,1.5c-1.4,0-2.6-0.5-3.6-1.5
				S121,63,121,61.6c0-1.4,0.5-2.6,1.5-3.7C123.5,56.9,124.7,56.4,126.1,56.4 M132.8,9.4c-2.6,0-4.5,0.3-5.8,0.9l-1.5,0.7l-0.1,1.7
				l-4,35.9l-0.4,3.3h3.4h6.7h2.4l0.5-2.3l7.8-33v-0.1v-0.1c0.1-0.4,0.1-0.8,0.1-1.1C142,13.1,140.8,9.4,132.8,9.4L132.8,9.4z
				 M126.1,53.4c-2.2,0-4.2,0.8-5.8,2.4c-1.5,1.6-2.3,3.6-2.3,5.8s0.8,4.2,2.4,5.8c1.5,1.5,3.5,2.4,5.7,2.4s4.2-0.8,5.8-2.3
				c1.6-1.5,2.4-3.5,2.4-5.8c0-2.2-0.8-4.2-2.4-5.8C130.3,54.2,128.3,53.4,126.1,53.4L126.1,53.4z"/>
		</g>
	</g>
</g>
</svg>
